<?xml version="1.0" standalone="no"?>
<!DOCTYPE svg PUBLIC "-//W3C//DTD SVG 20010904//EN"
 "http://www.w3.org/TR/2001/REC-SVG-20010904/DTD/svg10.dtd">
<svg version="1.0" xmlns="http://www.w3.org/2000/svg"
 width="1280.000000pt" height="499.000000pt" viewBox="0 0 1280.000000 499.000000"
 preserveAspectRatio="xMidYMid meet">
<g transform="translate(0.000000,499.000000) scale(0.100000,-0.100000)"
fill="#000000" stroke="none">
<path d="M1152 4319 c9 -5 135 -58 280 -118 145 -60 403 -170 573 -244 171
-74 332 -142 358 -151 26 -9 58 -22 70 -30 12 -8 78 -38 147 -66 128 -53 149
-65 137 -77 -4 -3 -62 -13 -130 -20 -67 -7 -127 -15 -134 -18 -10 -3 -9 -14 2
-50 7 -25 18 -51 23 -58 5 -7 19 -43 32 -82 12 -38 28 -79 34 -90 7 -11 18
-40 25 -65 7 -25 23 -70 36 -100 13 -30 74 -199 135 -375 61 -176 161 -458
221 -627 107 -302 116 -332 102 -341 -5 -3 -91 10 -193 29 -259 47 -1033 170
-1288 205 -240 33 -315 35 -452 14 -52 -8 -98 -15 -102 -15 -15 0 -8 -20 6
-20 8 0 155 -41 328 -91 172 -49 527 -149 788 -220 261 -72 479 -134 485 -140
14 -14 -5 -28 -118 -89 -108 -58 -117 -71 -97 -121 12 -27 16 -29 69 -28 31 1
110 -8 176 -19 138 -24 364 -53 616 -81 181 -20 219 -31 291 -84 26 -20 32
-20 95 -8 38 8 93 21 124 31 51 15 85 16 375 8 175 -6 483 -7 683 -4 l365 6
174 36 c121 24 178 32 185 25 8 -8 16 -6 28 5 11 10 128 39 306 75 158 33 304
64 323 69 19 5 80 12 135 15 55 2 147 7 205 10 353 19 601 51 972 129 141 29
262 50 269 46 25 -16 181 -21 291 -10 110 11 117 10 152 -10 43 -26 45 -40 8
-62 -15 -9 -36 -26 -47 -38 l-20 -22 65 7 c36 3 93 11 128 17 112 18 145 -9
72 -60 -21 -15 -39 -30 -40 -33 0 -4 28 0 62 7 35 7 76 13 92 14 16 0 44 5 62
12 27 9 45 8 113 -12 79 -22 82 -22 127 -5 l47 18 -27 14 c-15 8 -24 18 -21
22 6 11 173 36 181 28 10 -10 -13 -33 -67 -68 -27 -17 -48 -34 -45 -36 2 -3
52 -11 111 -19 87 -11 112 -18 136 -39 16 -13 52 -35 79 -47 33 -15 50 -29 50
-41 0 -9 11 -22 25 -27 14 -5 25 -14 25 -19 0 -20 162 -34 265 -23 55 5 109
10 120 10 44 1 334 53 419 76 143 38 201 64 254 111 88 79 136 229 113 356
-24 139 -108 252 -216 290 -53 18 -88 21 -294 25 -263 4 -259 5 -557 -81 -87
-25 -162 -45 -166 -45 -5 0 -8 6 -8 13 0 8 18 22 40 32 22 10 42 26 45 36 3
10 28 31 54 47 41 26 106 42 472 117 650 133 1197 250 1374 294 281 70 638
196 840 298 180 91 295 208 295 300 0 65 -129 201 -332 351 -126 93 -197 136
-272 162 -34 12 -70 26 -81 30 -71 29 -404 70 -568 70 -248 0 -664 -57 -1067
-146 -343 -76 -350 -77 -372 -58 -16 15 -18 15 -18 1 0 -9 -4 -18 -9 -21 -13
-9 -1710 -371 -1946 -416 -27 -5 -142 -14 -255 -20 -221 -11 -265 -18 -495
-81 l-151 -41 -474 97 c-1153 234 -2210 517 -3745 1003 -225 71 -435 135 -465
141 -220 49 -727 165 -827 190 -120 30 -228 42 -191 20z m1957 -821 c40 -14
66 -29 69 -40 3 -13 11 -16 26 -12 22 5 366 -122 415 -153 l24 -16 -49 -43
c-58 -51 -56 -52 98 -25 102 17 110 17 155 1 432 -154 680 -245 688 -252 6 -6
-7 -25 -37 -53 -28 -25 -43 -45 -35 -47 13 -4 150 5 252 17 58 7 67 4 235 -60
96 -38 189 -68 205 -69 17 -1 33 -8 37 -17 8 -19 171 -99 203 -99 13 0 25 -7
28 -15 4 -8 24 -23 46 -34 39 -20 57 -38 49 -47 -3 -2 -126 -31 -274 -65 -214
-48 -275 -58 -296 -51 -22 8 -28 7 -28 -3 0 -15 -35 -27 -129 -45 -31 -6 -76
-17 -101 -25 -25 -8 -91 -26 -147 -40 -92 -24 -108 -25 -159 -15 -66 14 -166
64 -243 122 -30 23 -165 149 -300 282 -604 591 -821 807 -821 816 0 15 19 12
89 -12z"/>
</g>
</svg>
